<svg xmlns="http://www.w3.org/2000/svg" width="34.061" height="33.873" viewBox="0 0 34.061 33.873">
  <g id="message-notification-01" transform="translate(-1.25 -1)">
    <path id="Tracé_13" data-name="Tracé 13" d="M14.972,32.714l.082-1.185h0Zm-12.5-12.5,1.185-.082Zm31.62,0L32.9,20.13h0Zm-12.5,12.5-.082-1.185h0ZM14.972,3.47l.082,1.185Zm-12.5,12.5,1.185.082ZM5.014,27.2l1.1.442.245-.61L5.974,26.5ZM2.47,33.538l-1.1-.442a1.188,1.188,0,0,0,1.48,1.569Zm7.093-2.376.56-1.048-.452-.241-.486.163ZM17.092,4.626h2.376V2.25H17.092Zm2.376,26.932H17.092v2.376h2.376Zm-2.376,0c-1.123,0-1.624,0-2.038-.029L14.889,33.9c.517.036,1.12.035,2.2.035ZM1.25,18.092c0,1.083,0,1.686.035,2.2l2.371-.165c-.029-.414-.029-.915-.029-2.038Zm31.684,0c0,1.123,0,1.624-.029,2.038l2.371.165c.036-.517.035-1.12.035-2.2ZM19.469,33.934c1.083,0,1.686,0,2.2-.035l-.165-2.371c-.414.029-.915.029-2.038.029ZM32.9,20.13a12.278,12.278,0,0,1-11.4,11.4l.165,2.371a14.654,14.654,0,0,0,13.6-13.6Zm2.406-2.038c0-1.083,0-1.686-.035-2.2l-2.371.165c.029.414.029.915.029,2.038ZM17.092,2.25c-1.083,0-1.686,0-2.2.035l.165,2.371c.414-.029.915-.029,2.038-.029ZM3.626,18.092c0-1.123,0-1.624.029-2.038l-2.371-.165c-.036.517-.035,1.12-.035,2.2ZM14.889,2.285a14.654,14.654,0,0,0-13.6,13.6l2.371.165a12.278,12.278,0,0,1,11.4-11.4ZM5.974,26.5A12.235,12.235,0,0,1,3.656,20.13L1.285,20.3A14.611,14.611,0,0,0,4.053,27.9Zm-2.063.257L1.368,33.1l2.205.885,2.543-6.337Zm11.143,4.77a12.238,12.238,0,0,1-4.93-1.415L9,32.21A14.615,14.615,0,0,0,14.889,33.9ZM2.848,34.665l7.093-2.376-.755-2.253L2.093,32.412Z" transform="translate(0 0.146)" fill="#fff"/>
    <path id="Tracé_14" data-name="Tracé 14" d="M7.5,17.921H21.758M7.5,10h8.713" transform="translate(3.651 4.674)" fill="none" stroke="#f0c726" stroke-linejoin="round" stroke-width="2"/>
    <path id="Tracé_15" data-name="Tracé 15" d="M26.09,7.545A5.545,5.545,0,1,1,20.545,2,5.545,5.545,0,0,1,26.09,7.545Z" transform="translate(8.033)" fill="none" stroke="#f0c726" stroke-width="2"/>
  </g>
</svg>
